<?xml version="1.0" encoding="utf-8"?>
<svg width="24" height="24" viewBox="0 0 24 24"
  xmlns="http://www.w3.org/2000/svg">
  <defs>
    <path id="path-0"
      d="M 11.172413793103448 11.586206896551724 L 36.42343060545792 47.81592667079946"
      style="fill: none;" />
  </defs>
  <g fill="none" stroke="currentColor" stroke-width="1.5">
    <path
      d="M2 12c0-3.771 0-5.657 1.172-6.828C4.343 4 6.229 4 10 4h4c3.771 0 5.657 0 6.828 1.172C22 6.343 22 8.229 22 12v2c0 3.771 0 5.657-1.172 6.828C19.657 22 17.771 22 14 22h-4c-3.771 0-5.657 0-6.828-1.172C2 19.657 2 17.771 2 14v-2Z" />
    <path stroke-linecap="round" d="M7 4V2.5M17 4V2.5M2 9h20" opacity=".5" />
  </g>
  <path
    style="stroke: currentColor; fill: none; stroke-linecap: round; stroke-linejoin: round; stroke-width: 1.5px; transform-box: fill-box; transform-origin: 50% 50%;"
    d="M 11.415 11.862 L 15.587 11.862 L 12.414 18.207"
    transform="matrix(0.999999, 0.001336, -0.001336, 0.999999, 0, 0)" />
  <g>
    <g>
      <line
        style="fill: rgb(216, 216, 216); stroke: currentColor; stroke-linecap: round; stroke-width: 1.2px;"
        x1="10.242" y1="14.517" x2="6.069" y2="14.449" />
    </g>
    <g>
      <line
        style="fill: rgb(216, 216, 216); stroke: currentColor; stroke-linecap: round; stroke-width: 1.2px;"
        x1="8.174" y1="12.448" x2="8.139" y2="16.414" />
    </g>
  </g>
</svg>
